<svg width="80" height="80" viewBox="0 0 80 80" fill="none" xmlns="http://www.w3.org/2000/svg">
<rect width="80" height="80" rx="10" fill="#D0021B"/>
<rect x="10" y="10" width="60" height="60" rx="20" fill="white"/>
<circle cx="26" cy="31.5" r="6" fill="#D0021B"/>
<circle cx="54" cy="31.5" r="6" fill="#D0021B"/>
<path d="M29 41C29 41.7879 29.1552 42.5681 29.4567 43.2961C29.7583 44.0241 30.2002 44.6855 30.7574 45.2426C31.3145 45.7998 31.9759 46.2417 32.7039 46.5433C33.4319 46.8448 34.2121 47 35 47C35.7879 47 36.5681 46.8448 37.2961 46.5433C38.0241 46.2417 38.6855 45.7998 39.2426 45.2426C39.7998 44.6855 40.2417 44.0241 40.5433 43.2961C40.8448 42.5681 41 41.7879 41 41H38.6C38.6 41.4728 38.5069 41.9409 38.326 42.3777C38.145 42.8144 37.8799 43.2113 37.5456 43.5456C37.2113 43.8799 36.8144 44.145 36.3777 44.326C35.9409 44.5069 35.4728 44.6 35 44.6C34.5272 44.6 34.0591 44.5069 33.6223 44.326C33.1856 44.145 32.7887 43.8799 32.4544 43.5456C32.1201 43.2113 31.855 42.8144 31.674 42.3777C31.4931 41.9409 31.4 41.4728 31.4 41H29Z" fill="#D0021B"/>
<path d="M39 41C39 41.7879 39.1552 42.5681 39.4567 43.2961C39.7583 44.0241 40.2002 44.6855 40.7574 45.2426C41.3145 45.7998 41.9759 46.2417 42.7039 46.5433C43.4319 46.8448 44.2121 47 45 47C45.7879 47 46.5681 46.8448 47.2961 46.5433C48.0241 46.2417 48.6855 45.7998 49.2426 45.2426C49.7998 44.6855 50.2417 44.0241 50.5433 43.2961C50.8448 42.5681 51 41.7879 51 41H48.6C48.6 41.4728 48.5069 41.9409 48.326 42.3777C48.145 42.8144 47.8799 43.2113 47.5456 43.5456C47.2113 43.8799 46.8144 44.145 46.3777 44.326C45.9409 44.5069 45.4728 44.6 45 44.6C44.5272 44.6 44.0591 44.5069 43.6223 44.326C43.1856 44.145 42.7887 43.8799 42.4544 43.5456C42.1201 43.2113 41.855 42.8144 41.674 42.3777C41.4931 41.9409 41.4 41.4728 41.4 41H39Z" fill="#D0021B"/>
</svg>
