<svg width="425" height="80" viewBox="0 0 425 80" fill="none" xmlns="http://www.w3.org/2000/svg">
<path d="M110.141 64H96.5045L111.868 17.4545H129.141L144.505 64H130.868L120.686 30.2727H120.323L110.141 64ZM107.595 45.6364H133.232V55.0909H107.595V45.6364ZM195.66 17.4545V64H185.115L168.297 39.5455H168.024V64H155.388V17.4545H166.115L182.66 41.8182H183.024V17.4545H195.66ZM220.674 17.4545V64H208.038V17.4545H220.674ZM233.062 17.4545H248.79L259.608 43.8182H260.153L270.972 17.4545H286.699V64H274.335V37.0909H273.972L263.608 63.6364H256.153L245.79 36.9091H245.426V64H233.062V17.4545ZM311.724 17.4545V64H299.088V17.4545H311.724ZM349.203 32C349.082 30.4848 348.514 29.303 347.499 28.4545C346.499 27.6061 344.976 27.1818 342.931 27.1818C341.628 27.1818 340.559 27.3409 339.726 27.6591C338.908 27.9621 338.302 28.3788 337.908 28.9091C337.514 29.4394 337.309 30.0455 337.294 30.7273C337.264 31.2879 337.363 31.7955 337.59 32.25C337.832 32.6894 338.211 33.0909 338.726 33.4545C339.241 33.803 339.9 34.1212 340.703 34.4091C341.506 34.697 342.461 34.9545 343.567 35.1818L347.385 36C349.961 36.5455 352.166 37.2652 353.999 38.1591C355.832 39.053 357.332 40.1061 358.499 41.3182C359.666 42.5152 360.522 43.8636 361.067 45.3636C361.628 46.8636 361.916 48.5 361.931 50.2727C361.916 53.3333 361.15 55.9242 359.635 58.0455C358.12 60.1667 355.953 61.7803 353.135 62.8864C350.332 63.9924 346.961 64.5455 343.022 64.5455C338.976 64.5455 335.446 63.947 332.431 62.75C329.431 61.553 327.097 59.7121 325.431 57.2273C323.779 54.7273 322.946 51.5303 322.931 47.6364H334.931C335.006 49.0606 335.363 50.2576 335.999 51.2273C336.635 52.197 337.529 52.9318 338.681 53.4318C339.847 53.9318 341.234 54.1818 342.84 54.1818C344.188 54.1818 345.317 54.0152 346.226 53.6818C347.135 53.3485 347.825 52.8864 348.294 52.2955C348.764 51.7045 349.006 51.0303 349.022 50.2727C349.006 49.5606 348.772 48.9394 348.317 48.4091C347.878 47.8636 347.15 47.3788 346.135 46.9545C345.12 46.5152 343.749 46.1061 342.022 45.7273L337.385 44.7273C333.264 43.8333 330.014 42.3409 327.635 40.25C325.272 38.1439 324.097 35.2727 324.113 31.6364C324.097 28.6818 324.885 26.0985 326.476 23.8864C328.082 21.6591 330.302 19.9242 333.135 18.6818C335.984 17.4394 339.249 16.8182 342.931 16.8182C346.688 16.8182 349.938 17.447 352.681 18.7045C355.423 19.9621 357.537 21.7348 359.022 24.0227C360.522 26.2955 361.279 28.9545 361.294 32H349.203ZM373.138 64V17.4545H406.683V27.6364H385.774V35.6364H404.956V45.8182H385.774V53.8182H406.592V64H373.138Z" fill="black"/>
<rect width="80" height="80" rx="10" fill="#D0021B"/>
<rect x="10" y="10" width="60" height="60" rx="20" fill="white"/>
<circle cx="26" cy="31.5" r="6" fill="#D0021B"/>
<circle cx="54" cy="31.5" r="6" fill="#D0021B"/>
<path d="M29 41C29 41.7879 29.1552 42.5681 29.4567 43.2961C29.7583 44.0241 30.2002 44.6855 30.7574 45.2426C31.3145 45.7998 31.9759 46.2417 32.7039 46.5433C33.4319 46.8448 34.2121 47 35 47C35.7879 47 36.5681 46.8448 37.2961 46.5433C38.0241 46.2417 38.6855 45.7998 39.2426 45.2426C39.7998 44.6855 40.2417 44.0241 40.5433 43.2961C40.8448 42.5681 41 41.7879 41 41H38.6C38.6 41.4728 38.5069 41.9409 38.326 42.3777C38.145 42.8144 37.8799 43.2113 37.5456 43.5456C37.2113 43.8799 36.8144 44.145 36.3777 44.326C35.9409 44.5069 35.4728 44.6 35 44.6C34.5272 44.6 34.0591 44.5069 33.6223 44.326C33.1856 44.145 32.7887 43.8799 32.4544 43.5456C32.1201 43.2113 31.855 42.8144 31.674 42.3777C31.4931 41.9409 31.4 41.4728 31.4 41H29Z" fill="#D0021B"/>
<path d="M39 41C39 41.7879 39.1552 42.5681 39.4567 43.2961C39.7583 44.0241 40.2002 44.6855 40.7574 45.2426C41.3145 45.7998 41.9759 46.2417 42.7039 46.5433C43.4319 46.8448 44.2121 47 45 47C45.7879 47 46.5681 46.8448 47.2961 46.5433C48.0241 46.2417 48.6855 45.7998 49.2426 45.2426C49.7998 44.6855 50.2417 44.0241 50.5433 43.2961C50.8448 42.5681 51 41.7879 51 41H48.6C48.6 41.4728 48.5069 41.9409 48.326 42.3777C48.145 42.8144 47.8799 43.2113 47.5456 43.5456C47.2113 43.8799 46.8144 44.145 46.3777 44.326C45.9409 44.5069 45.4728 44.6 45 44.6C44.5272 44.6 44.0591 44.5069 43.6223 44.326C43.1856 44.145 42.7887 43.8799 42.4544 43.5456C42.1201 43.2113 41.855 42.8144 41.674 42.3777C41.4931 41.9409 41.4 41.4728 41.4 41H39Z" fill="#D0021B"/>
</svg>
